<?xml version="1.0" standalone="no"?>
<!DOCTYPE svg PUBLIC "-//W3C//DTD SVG 20010904//EN"
 "http://www.w3.org/TR/2001/REC-SVG-20010904/DTD/svg10.dtd">
<svg version="1.0" xmlns="http://www.w3.org/2000/svg"
 width="300.000000pt" height="300.000000pt" viewBox="0 0 300.000000 300.000000"
 preserveAspectRatio="xMidYMid meet">
<metadata>
Created by potrace 1.10, written by Peter Selinger 2001-2011
</metadata>
<g transform="translate(0.000000,300.000000) scale(0.100000,-0.100000)"
fill="#ffffff" stroke="none">
<path d="M2263 2131 c-18 -5 -44 -16 -59 -26 -25 -16 -28 -16 -74 4 -42 18
-69 21 -195 21 l-145 0 15 -24 c13 -20 15 -70 13 -362 -2 -187 -6 -346 -11
-354 -6 -13 5 -15 73 -16 44 0 80 1 80 4 0 2 -9 15 -20 29 -19 25 -20 41 -20
349 0 225 3 325 11 330 21 13 101 5 132 -14 42 -24 82 -84 103 -157 35 -114
16 -353 -37 -474 -24 -55 -24 -58 1 -36 53 48 125 196 144 297 18 93 5 224
-28 291 -15 32 -25 64 -22 72 16 42 116 43 178 2 132 -90 152 -362 41 -586
-20 -42 -39 -80 -41 -86 -13 -29 67 59 103 115 84 129 125 281 106 387 -13 67
-56 148 -93 174 -72 52 -184 78 -255 60z m-386 -544 c-1 -89 -3 -13 -3 168 0
182 2 254 3 162 2 -93 2 -241 0 -330z m329 401 c21 -48 29 -81 31 -138 l2 -75
-17 80 c-10 44 -30 106 -44 138 -19 40 -23 57 -14 57 7 0 26 -28 42 -62z m354
-56 c5 -20 9 -59 9 -87 l-1 -50 -10 45 c-9 43 -28 112 -43 155 -6 18 -4 17 14
-3 11 -13 25 -40 31 -60z"/>
<path d="M550 2113 c-120 -82 -125 -301 -11 -467 104 -150 270 -252 431 -263
l75 -6 0 254 0 254 -137 -3 c-104 -2 -139 -6 -148 -18 -11 -12 0 -14 74 -14
115 0 114 1 115 -195 1 -163 -6 -208 -33 -213 -33 -7 -141 56 -193 110 -59 64
-116 159 -138 230 -22 77 -20 182 6 236 36 74 59 82 240 82 203 0 217 -13 120
-113 l-46 -47 35 6 c52 9 110 53 139 105 43 79 42 79 -253 79 -221 0 -255 -2
-276 -17z m-2 -100 c-31 -77 -20 -218 22 -306 11 -22 18 -42 16 -45 -7 -6 -54
79 -71 127 -28 79 -17 211 21 252 24 27 29 16 12 -28z m452 -568 c0 -15 -18
-30 -27 -22 -2 3 -2 15 2 26 7 23 25 19 25 -4z"/>
<path d="M1189 2113 c21 -18 22 -21 19 -363 -2 -190 -6 -352 -11 -360 -6 -13
5 -15 73 -15 80 0 95 7 63 31 -16 11 -18 34 -21 162 l-4 150 54 17 c92 31 207
84 263 120 84 56 116 144 79 216 -27 53 -58 59 -310 59 -217 0 -225 -1 -205
-17z m386 -33 c60 -23 55 -110 -10 -176 -38 -38 -168 -110 -232 -129 l-23 -6
0 145 c0 79 3 151 6 160 5 13 25 16 119 16 63 0 125 -4 140 -10z m-293 -308
c9 -18 9 -27 0 -42 -8 -13 -12 -68 -12 -162 0 -78 -2 -139 -6 -136 -5 6 -7
421 -2 568 1 57 3 37 5 -60 2 -88 8 -154 15 -168z m393 255 c4 -13 0 -39 -8
-58 l-15 -34 2 57 c1 60 11 76 21 35z"/>
<path d="M340 1232 c-32 -32 -40 -76 -20 -113 16 -29 68 -52 103 -45 44 9 57
24 57 67 0 39 0 39 -40 39 -29 0 -40 -4 -40 -15 0 -9 9 -15 25 -15 18 0 25 -5
25 -20 0 -12 -7 -21 -17 -22 -78 -7 -117 44 -77 100 17 24 77 31 90 11 5 -8
10 -6 16 5 13 23 7 27 -46 33 -40 5 -48 2 -76 -25z"/>
<path d="M543 1169 l2 -91 60 -1 c46 -1 60 2 60 13 0 11 -13 15 -45 16 -40 0
-45 3 -45 24 0 21 5 24 39 24 22 1 41 7 43 14 3 8 -9 12 -41 12 -42 0 -46 2
-46 25 0 23 3 25 48 25 37 0 49 4 49 15 0 12 -14 15 -64 15 l-63 0 3 -91z"/>
<path d="M725 1168 c0 -76 3 -93 15 -93 12 0 14 12 12 63 -2 34 0 62 5 62 4
-1 30 -30 57 -65 26 -36 52 -65 57 -65 5 0 9 43 9 95 0 76 -3 95 -15 95 -10 0
-15 -16 -17 -61 l-3 -62 -48 62 c-27 33 -54 61 -61 61 -8 0 -12 -26 -11 -92z"/>
<path d="M950 1168 l0 -93 60 0 c53 -1 60 2 60 18 0 17 -6 19 -45 15 -44 -5
-45 -5 -45 22 0 27 2 28 40 23 33 -5 40 -3 40 11 0 12 -10 16 -40 16 -36 0
-40 3 -40 25 0 23 4 25 45 25 33 0 45 4 45 15 0 12 -13 15 -60 15 l-60 0 0
-92z"/>
<path d="M1145 1244 c-27 -28 -14 -57 38 -83 26 -13 47 -29 47 -36 0 -20 -36
-28 -61 -15 -14 8 -24 9 -31 2 -30 -30 57 -54 98 -28 20 14 25 24 22 49 -3 27
-9 34 -48 48 -58 21 -60 44 -3 44 46 0 65 11 43 25 -24 15 -87 11 -105 -6z"/>
<path d="M1325 1170 c0 -79 2 -90 18 -90 15 0 17 11 17 90 0 79 -2 90 -17 90
-16 0 -18 -11 -18 -90z"/>
<path d="M1436 1241 c-27 -30 -16 -54 37 -79 26 -12 47 -29 47 -37 0 -19 -35
-28 -61 -15 -27 15 -54 -4 -29 -21 51 -32 113 -15 118 34 4 36 -9 51 -59 66
-51 15 -46 36 9 36 45 0 64 11 42 25 -26 17 -86 11 -104 -9z"/>
<path d="M1710 1170 c0 -80 2 -90 18 -90 15 0 18 6 14 30 -4 28 -2 30 30 30
46 0 78 24 78 60 0 39 -32 60 -92 60 l-48 0 0 -90z m105 39 c9 -26 -4 -39 -41
-42 -26 -2 -29 1 -32 31 -3 31 -2 32 32 32 26 0 36 -5 41 -21z"/>
<path d="M1931 1234 c-51 -43 -41 -118 20 -150 40 -20 82 -11 114 28 29 34 31
57 10 98 -29 56 -93 67 -144 24z m109 -26 c24 -26 25 -46 4 -76 -30 -43 -114
-19 -114 32 0 60 69 88 110 44z"/>
<path d="M2150 1170 c0 -76 2 -90 16 -90 12 0 15 7 12 30 -4 26 -1 30 18 30
14 0 31 -12 44 -30 12 -16 30 -30 42 -30 19 0 18 2 -7 31 l-26 32 21 19 c47
44 9 98 -70 98 l-50 0 0 -90z m100 45 c18 -22 -4 -45 -44 -45 -28 0 -31 3 -31
30 0 27 3 30 31 30 17 0 37 -7 44 -15z"/>
<path d="M2330 1245 c0 -10 10 -15 33 -15 l32 0 -3 -75 c-3 -63 -1 -75 12 -75
13 0 16 13 16 75 l0 75 35 0 c24 0 35 5 35 15 0 12 -16 15 -80 15 -64 0 -80
-3 -80 -15z"/>
<path d="M2548 1253 c18 -2 45 -2 60 0 15 2 0 4 -33 4 -33 0 -45 -2 -27 -4z"/>
<path d="M1330 977 c-13 -7 -31 -25 -40 -40 -13 -24 -13 -30 0 -54 21 -38 63
-57 98 -45 22 7 28 15 30 45 3 35 2 37 -27 37 -35 0 -42 -19 -11 -27 34 -9 24
-33 -15 -33 -24 0 -37 6 -45 19 -25 47 4 86 57 78 41 -7 54 9 18 23 -33 13
-35 12 -65 -3z"/>
<path d="M525 909 c0 -47 4 -74 12 -76 8 -3 13 13 15 49 l3 53 19 -37 c11 -21
22 -38 26 -38 3 0 14 16 24 35 11 19 22 35 25 35 3 0 4 -23 2 -51 -2 -40 0
-50 10 -47 21 7 25 148 5 148 -8 0 -25 -18 -37 -40 -13 -22 -25 -40 -28 -40
-3 0 -15 17 -26 37 -11 21 -27 39 -35 41 -13 2 -16 -10 -15 -69z"/>
<path d="M783 963 c-3 -10 -17 -42 -30 -72 -24 -56 -22 -82 4 -43 21 30 78 31
86 2 3 -11 10 -20 17 -20 13 0 8 21 -26 98 -24 54 -40 65 -51 35z m31 -39 c10
-26 7 -34 -15 -34 -15 0 -19 4 -15 16 3 9 6 20 6 25 0 15 17 10 24 -7z"/>
<path d="M922 908 c4 -87 25 -107 30 -28 l3 51 39 -50 c21 -28 42 -51 47 -51
5 0 9 34 9 75 0 56 -3 75 -14 75 -10 0 -12 -12 -8 -51 6 -61 -2 -60 -49 6 -48
66 -60 60 -57 -27z"/>
<path d="M1153 963 c-3 -10 -16 -41 -29 -70 -12 -28 -20 -54 -16 -57 10 -11
20 -6 25 14 4 15 14 20 41 20 25 0 36 -5 36 -14 0 -16 18 -31 27 -23 3 3 -7
38 -22 76 -28 70 -49 89 -62 54z m25 -71 c-27 -5 -32 2 -18 29 l13 22 13 -24
c11 -22 11 -24 -8 -27z"/>
<path d="M1490 905 l0 -75 50 0 c38 0 50 4 50 15 0 11 -11 15 -39 15 -34 0
-38 3 -34 20 4 14 14 20 34 20 16 0 29 5 29 10 0 6 -13 10 -30 10 -23 0 -30 4
-30 20 0 16 7 20 35 20 19 0 35 5 35 10 0 6 -22 10 -50 10 l-50 0 0 -75z"/>
<path d="M1650 904 c0 -56 3 -75 13 -71 8 3 11 22 9 58 l-2 54 27 -44 c24 -39
28 -42 37 -26 6 9 19 27 29 39 17 21 17 20 15 -28 -1 -32 2 -51 10 -54 9 -3
12 17 12 72 0 43 -4 76 -10 76 -5 0 -22 -18 -37 -41 l-27 -41 -18 24 c-10 13
-20 31 -24 41 -3 9 -12 17 -20 17 -11 0 -14 -17 -14 -76z"/>
<path d="M1870 904 l0 -75 47 3 c60 4 72 28 14 28 -34 0 -41 3 -41 20 0 16 7
20 35 20 19 0 35 5 35 10 0 6 -16 10 -35 10 -28 0 -35 4 -35 20 0 17 7 20 40
20 22 0 40 5 40 10 0 6 -22 10 -50 10 l-50 0 0 -76z"/>
<path d="M2030 905 c0 -85 17 -103 22 -22 l3 52 40 -52 c21 -29 43 -53 47 -53
4 0 8 34 8 75 0 84 -17 103 -22 24 l-3 -50 -38 50 c-20 28 -42 51 -47 51 -6 0
-10 -33 -10 -75z"/>
<path d="M2210 970 c0 -5 12 -10 26 -10 27 0 27 0 22 -65 -5 -51 -3 -65 8 -65
11 0 14 16 14 65 0 63 1 65 25 65 14 0 25 5 25 10 0 6 -27 10 -60 10 -33 0
-60 -4 -60 -10z"/>
</g>
</svg>
