<?xml version="1.0" standalone="no"?>
<!DOCTYPE svg PUBLIC "-//W3C//DTD SVG 20010904//EN"
 "http://www.w3.org/TR/2001/REC-SVG-20010904/DTD/svg10.dtd">
<svg version="1.0" xmlns="http://www.w3.org/2000/svg"
 width="300.000000pt" height="119.000000pt" viewBox="0 0 300.000000 119.000000"
 preserveAspectRatio="xMidYMid meet">
<metadata>
Created by potrace 1.10, written by Peter Selinger 2001-2011
</metadata>
<g transform="translate(0.000000,119.000000) scale(0.100000,-0.100000)"
fill="#ffffff" stroke="none">
<path d="M2530 1041 c103 -8 165 -35 231 -102 75 -74 83 -97 84 -229 1 -75 -5
-143 -16 -195 -21 -98 -56 -205 -74 -225 -7 -8 -16 -26 -20 -40 -4 -14 -29
-50 -57 -80 l-51 -55 25 45 c14 25 35 62 47 83 11 20 36 83 56 139 69 202 55
392 -39 521 -58 79 -196 132 -281 107 -74 -22 -93 -56 -55 -100 12 -13 18 -30
15 -38 -3 -8 2 -23 11 -33 25 -28 33 -294 10 -371 -9 -31 -16 -64 -16 -73 0
-34 -72 -201 -102 -235 l-30 -35 20 40 c57 117 82 243 85 421 2 122 -1 148
-22 212 -27 85 -95 174 -150 195 -58 23 -135 30 -174 16 -70 -25 -70 -27 -74
-462 l-4 -389 -25 -27 c-13 -15 -31 -36 -39 -47 -19 -25 -19 -18 5 49 19 53
20 82 20 452 l0 396 -26 24 -27 25 194 0 c149 -1 200 -4 219 -15 34 -19 76
-18 130 5 53 22 40 26 -18 6 -35 -13 -48 -13 -94 0 -37 10 -112 14 -250 14
l-197 0 20 -45 c19 -43 20 -63 17 -468 -3 -337 -7 -428 -18 -454 -8 -18 -12
-35 -9 -38 4 -3 25 3 48 14 29 12 39 21 30 26 -9 6 -4 15 17 31 l29 24 5 407
c3 245 9 415 15 425 7 11 10 -126 10 -424 0 -431 0 -441 -20 -449 -13 -6 -9
-7 15 -3 45 8 45 9 32 39 -15 33 -17 801 -2 839 8 22 16 26 52 26 49 0 114
-29 151 -68 15 -16 40 -59 56 -96 17 -41 31 -63 35 -55 3 8 3 4 1 -7 -3 -12
-1 -43 5 -70 25 -110 8 -310 -39 -459 -39 -125 -44 -145 -38 -151 8 -8 109
100 131 140 l17 31 -25 -30 -26 -30 26 65 c54 133 73 237 75 400 0 83 4 148 9
145 20 -13 28 -168 16 -310 l-5 -60 15 45 c24 75 28 176 10 263 -19 94 -83
230 -105 222 -11 -4 -12 -3 -1 10 15 18 35 20 24 3 -5 -8 -2 -9 12 -2 10 5 44
9 74 9 73 0 136 -40 190 -119 21 -31 40 -53 43 -49 2 5 2 2 0 -6 -2 -8 4 -39
14 -70 11 -36 17 -90 17 -151 0 -116 -31 -230 -107 -393 -27 -59 -47 -111 -43
-115 4 -4 25 12 47 36 22 23 43 42 47 42 14 1 85 102 119 168 140 278 113 535
-69 652 -78 51 -113 61 -223 65 l-90 3 85 -7z m341 -225 c-1 -3 6 -22 14 -42
35 -84 4 -288 -67 -436 -23 -48 -50 -96 -61 -105 -11 -10 -18 -13 -16 -8 3 6
24 49 46 97 40 83 54 133 74 258 11 70 13 186 3 225 -4 17 -4 27 0 23 4 -3 7
-9 7 -12z"/>
<path d="M303 1021 c-40 -25 -79 -91 -94 -160 -14 -69 -4 -201 17 -201 8 0 14
-9 13 -22 0 -22 -1 -22 -9 -3 -7 16 -9 17 -9 3 -1 -9 5 -23 12 -30 8 -7 12
-19 9 -27 -3 -9 0 -11 8 -6 9 6 10 1 5 -16 -4 -13 -4 -21 0 -17 10 10 48 -39
42 -55 -4 -7 -6 -6 -6 4 -1 9 -8 23 -18 30 -14 13 -14 11 1 -19 10 -19 20 -31
23 -28 8 7 33 -13 33 -26 0 -6 -8 -4 -17 3 -12 9 -10 3 5 -18 13 -18 28 -32
34 -30 6 1 13 -5 15 -13 4 -13 3 -13 -6 0 -6 8 -11 10 -11 5 0 -12 102 -115
113 -115 5 0 5 5 1 12 -4 7 -3 8 5 4 6 -4 9 -11 6 -16 -9 -14 113 -98 218
-152 94 -48 159 -68 225 -68 l37 0 -3 342 -3 343 -117 9 c-158 12 -252 -7
-252 -52 0 -13 15 -14 98 -10 53 3 103 4 110 1 9 -4 12 -63 12 -249 l0 -244
-24 0 c-41 0 -147 70 -217 142 -80 84 -132 168 -164 271 -43 135 -31 243 38
331 28 37 29 38 5 22 -14 -9 -38 -40 -53 -69 -36 -68 -46 -191 -21 -263 18
-54 20 -68 7 -59 -19 11 -41 114 -41 187 1 93 31 173 77 204 31 20 45 22 226
23 110 1 205 -3 220 -8 24 -9 26 -13 16 -38 -6 -15 -32 -49 -60 -75 -63 -61
-65 -79 -6 -67 145 32 251 155 187 219 -11 11 -26 20 -32 19 -10 0 -10 -2 0
-6 20 -8 14 -29 -22 -86 -32 -50 -138 -138 -151 -125 -3 3 15 24 40 46 81 75
93 136 30 148 -18 3 -120 3 -226 0 -178 -5 -195 -7 -226 -28 -39 -27 -83 -89
-83 -117 0 -11 -5 -23 -11 -27 -17 -10 -5 -179 17 -234 10 -25 44 -86 76 -137
45 -70 78 -107 144 -162 116 -97 206 -141 254 -126 33 10 40 61 40 279 0 271
7 258 -136 254 -57 -2 -104 0 -104 4 0 18 108 30 215 23 l113 -7 -19 -32 c-17
-30 -19 -55 -20 -247 -1 -263 -10 -299 -76 -313 -38 -8 -51 -5 -120 28 -158
75 -245 148 -334 283 -98 149 -129 244 -124 376 6 130 45 184 143 198 l47 6
-45 2 c-29 0 -56 -6 -77 -18z m681 -89 c-22 -35 -85 -91 -102 -92 -8 0 13 29
45 64 57 63 90 79 57 28z m-46 -537 c-3 -293 -4 -316 -21 -321 -10 -3 -28 1
-41 9 -12 8 -39 15 -60 15 -21 0 -45 6 -53 14 -12 13 -7 14 39 8 32 -5 54 -3
57 2 2 6 7 5 11 -2 6 -9 12 -6 21 11 10 18 15 87 17 274 2 219 11 305 29 305
2 0 2 -142 1 -315z"/>
<path d="M1100 1018 c1 -7 7 -24 15 -38 12 -20 14 -100 15 -440 1 -328 4 -410
13 -390 9 18 12 138 12 428 l0 403 -25 19 c-25 19 -23 20 253 20 274 0 309 -4
329 -34 25 -36 -20 -143 -88 -212 -22 -22 -72 -58 -110 -79 -38 -22 -71 -42
-74 -45 -9 -10 -124 -58 -157 -65 -54 -11 -38 12 25 35 133 50 277 146 322
215 11 17 20 47 20 67 0 89 -25 100 -238 101 -160 1 -165 0 -183 -22 -11 -13
-19 -37 -20 -55 -2 -100 -2 -130 0 -218 1 -71 5 -101 16 -112 8 -8 15 -17 15
-20 0 -3 -7 -3 -15 0 -8 4 -16 5 -16 3 -1 -2 -4 -95 -8 -207 -5 -164 -9 -206
-21 -215 -23 -18 -73 -88 -67 -94 10 -9 47 8 41 19 -5 7 -1 9 9 5 21 -8 127
23 127 37 -1 6 -7 22 -15 36 -10 18 -14 62 -15 161 0 213 -18 187 196 290 206
98 245 124 286 188 33 53 39 141 12 179 -34 49 -52 52 -364 52 -225 0 -290 -3
-290 -12z m143 -199 c-6 -127 -8 -146 -15 -109 -13 64 3 283 18 267 3 -2 1
-73 -3 -158z m340 152 c65 -25 48 -126 -33 -198 -87 -78 -265 -167 -282 -141
-9 16 -11 332 -1 341 10 11 289 8 316 -2z m177 -87 c0 -42 -29 -92 -80 -134
-47 -39 -228 -136 -237 -126 -5 5 49 39 112 71 54 27 135 109 164 168 27 53
41 60 41 21z m-420 -304 c0 -6 -12 -16 -27 -23 -60 -26 -62 -35 -63 -233 0
-116 4 -184 11 -191 8 -8 -3 -15 -37 -27 -26 -9 -49 -16 -51 -16 -6 0 19 44
34 58 10 10 13 55 14 180 2 221 2 221 64 242 28 10 51 18 53 19 1 0 2 -4 2 -9z"/>
<path d="M2433 346 c-17 -44 -31 -82 -29 -83 6 -6 67 138 64 151 -2 7 -17 -23
-35 -68z"/>
</g>
</svg>
