<?xml version="1.0"?>
<svg xmlns="http://www.w3.org/2000/svg" version="1.2" baseProfile="tiny" width="800" height="1126" viewBox="0 0 800 1126" stroke-linecap="round" stroke-linejoin="round">
<g id="custom.geo">
<path d="M 312.5 548 333 581 336.5 615.5 334.5 650 362.5 697 333.5 696.5 319 700 295.5 695 284 719.5 315 749.5 337.5 758.5 344.5 780 361 815.5 353 829.5 327 882 314.5 891.5 310.5 931.5 315.5 953.5 311.5 969 336 996 340.5 1014.5 359.5 1041.5 383 1058 385.5 1081.5 391 1096.5 387 1124.5 346 1112.5 304 1098.5 238.5 1096.5 232.5 1094 201.5 1100.5 170 1093.5 145.5 1097 61 1096 68.5 1055 48.5 1020.5 25 1012 14.5 988.5 1 981 1.5 967 15 930 39.5 880 54.5 880 85.5 849.5 105 848.5 134 870 170 852.5 174.5 831 186.5 810 194.5 784 222 762.5 232.5 726 243.5 714.5 251 687.5 264.5 654.5 308 614.5 311 597 316.5 588 296 567 297.5 550.5 312.5 548 Z"/>
<path d="M 353 829.5 361 815.5 344.5 780 337.5 758.5 315 749.5 284 719.5 295.5 695 319 700 333.5 696.5 362.5 697 334.5 650 336.5 615.5 333 581 312.5 548 317.5 523.5 284.5 522 284.5 489 263 469.5 285 401.5 351.5 352.5 354 285 374 180 385.5 157.5 363.5 140 363 123.5 343.5 110 330.5 29.5 383 1 590 100 796.5 199.5 799 405 754.5 401.5 730.5 439.5 717 471.5 727.5 484 710.5 499.5 716.5 521 703 543 698 562 716 559 727 579 727.5 609 746.5 624 746 636.5 713 645.5 687 666.5 649.5 723 600.5 747 550.5 744 536 748.5 541 767 514 785 492 805.5 427 825 414 813.5 405.5 812.5 396 825.5 353 829.5 Z"/>
</g>
</svg>